HIERARCHY
ROOT Hips
{
	OFFSET -14.64140 90.27770 -84.91600
	CHANNELS 6 Xposition Yposition Zposition Zrotation Xrotation Yrotation
	JOINT Spine
	{
		OFFSET 0.00000 13.20850 -1.60436
		CHANNELS 3 Zrotation Xrotation Yrotation
		JOINT Spine1
		{
			OFFSET 0.00000 8.61716 0.00000
			CHANNELS 3 Zrotation Xrotation Yrotation
			JOINT Spine2
			{
				OFFSET 0.00000 8.61717 0.00000
				CHANNELS 3 Zrotation Xrotation Yrotation
				JOINT Spine3
				{
					OFFSET 0.00000 8.61717 0.00000
					CHANNELS 3 Zrotation Xrotation Yrotation
					JOINT Neck
					{
						OFFSET 0.00000 11.07920 1.10792
						CHANNELS 3 Zrotation Xrotation Yrotation
						JOINT Neck1
						{
							OFFSET 0.00000 7.08032 0.00000
							CHANNELS 3 Zrotation Xrotation Yrotation
							JOINT Head
							{
								OFFSET 0.00000 7.08031 0.00000
								CHANNELS 3 Zrotation Xrotation Yrotation
								End site
								{
									OFFSET 0.00000 0.00000 0.00000
								}
							}
						}
					}
					JOINT RightShoulder
					{
						OFFSET -0.01000 7.91373 5.19711
						CHANNELS 3 Zrotation Xrotation Yrotation
						JOINT RightArm
						{
							OFFSET -18.41580 0.00000 0.00000
							CHANNELS 3 Zrotation Xrotation Yrotation
							JOINT RightForeArm
							{
								OFFSET -29.11090 0.00000 0.00000
								CHANNELS 3 Zrotation Xrotation Yrotation
								JOINT RightHand
								{
									OFFSET -24.65040 0.00000 0.00000
									CHANNELS 3 Zrotation Xrotation Yrotation
									JOINT RightHandThumb1
									{
										OFFSET -5.35114 -0.85590 3.97906
										CHANNELS 3 Zrotation Xrotation Yrotation
										JOINT RightHandThumb2
										{
											OFFSET -4.52789 0.00000 0.00000
											CHANNELS 3 Zrotation Xrotation Yrotation
											JOINT RightHandThumb3
											{
												OFFSET -2.46976 0.00000 0.00000
												CHANNELS 3 Zrotation Xrotation Yrotation
												End site
												{
													OFFSET 0.00000 0.00000 0.00000
												}
											}
										}
									}
									JOINT RightHandIndex1
									{
										OFFSET -14.26970 0.00000 2.88139
										CHANNELS 3 Zrotation Xrotation Yrotation
										JOINT RightHandIndex2
										{
											OFFSET -5.48836 0.00000 0.00000
											CHANNELS 3 Zrotation Xrotation Yrotation
											JOINT RightHandIndex3
											{
												OFFSET -3.01859 0.00000 0.00000
												CHANNELS 3 Zrotation Xrotation Yrotation
												End site
												{
													OFFSET 0.00000 0.00000 0.00000
												}
											}
										}
									}
									JOINT RightHandMiddle1
									{
										OFFSET -14.26970 0.00000 -0.09147
										CHANNELS 3 Zrotation Xrotation Yrotation
										JOINT RightHandMiddle2
										{
											OFFSET -6.17441 0.00000 0.00000
											CHANNELS 3 Zrotation Xrotation Yrotation
											JOINT RightHandMiddle3
											{
												OFFSET -3.56743 0.00000 0.00000
												CHANNELS 3 Zrotation Xrotation Yrotation
												End site
												{
													OFFSET 0.00000 0.00000 0.00000
												}
											}
										}
									}
									JOINT RightHandRing1
									{
										OFFSET -12.69180 0.00000 -3.06433
										CHANNELS 3 Zrotation Xrotation Yrotation
										JOINT RightHandRing2
										{
											OFFSET -5.62556 0.00000 0.00000
											CHANNELS 3 Zrotation Xrotation Yrotation
											JOINT RightHandRing3
											{
												OFFSET -3.56744 0.00000 0.00000
												CHANNELS 3 Zrotation Xrotation Yrotation
												End site
												{
													OFFSET 0.00000 0.00000 0.00000
												}
											}
										}
									}
									JOINT RightHandPinky1
									{
										OFFSET -11.11390 0.00000 -6.03719
										CHANNELS 3 Zrotation Xrotation Yrotation
										JOINT RightHandPinky2
										{
											OFFSET -4.52789 0.00000 0.00000
											CHANNELS 3 Zrotation Xrotation Yrotation
											JOINT RightHandPinky3
											{
												OFFSET -2.46976 0.00000 0.00000
												CHANNELS 3 Zrotation Xrotation Yrotation
												End site
												{
													OFFSET 0.00000 0.00000 0.00000
												}
											}
										}
									}
								}
							}
						}
					}
					JOINT LeftShoulder
					{
						OFFSET 0.01000 7.91373 5.19711
						CHANNELS 3 Zrotation Xrotation Yrotation
						JOINT LeftArm
						{
							OFFSET 18.41580 0.00000 0.00000
							CHANNELS 3 Zrotation Xrotation Yrotation
							JOINT LeftForeArm
							{
								OFFSET 29.11090 0.00000 0.00000
								CHANNELS 3 Zrotation Xrotation Yrotation
								JOINT LeftHand
								{
									OFFSET 24.65040 0.00000 0.00000
									CHANNELS 3 Zrotation Xrotation Yrotation
									JOINT LeftHandThumb1
									{
										OFFSET 5.35114 -0.85590 3.97906
										CHANNELS 3 Zrotation Xrotation Yrotation
										JOINT LeftHandThumb2
										{
											OFFSET 4.52789 0.00000 0.00000
											CHANNELS 3 Zrotation Xrotation Yrotation
											JOINT LeftHandThumb3
											{
												OFFSET 2.46977 0.00000 0.00000
												CHANNELS 3 Zrotation Xrotation Yrotation
												End site
												{
													OFFSET 0.00000 0.00000 0.00000
												}
											}
										}
									}
									JOINT LeftHandIndex1
									{
										OFFSET 14.26970 0.00000 2.88139
										CHANNELS 3 Zrotation Xrotation Yrotation
										JOINT LeftHandIndex2
										{
											OFFSET 5.48836 0.00000 0.00000
											CHANNELS 3 Zrotation Xrotation Yrotation
											JOINT LeftHandIndex3
											{
												OFFSET 3.01859 0.00000 0.00000
												CHANNELS 3 Zrotation Xrotation Yrotation
												End site
												{
													OFFSET 0.00000 0.00000 0.00000
												}
											}
										}
									}
									JOINT LeftHandMiddle1
									{
										OFFSET 14.26970 0.00000 -0.09147
										CHANNELS 3 Zrotation Xrotation Yrotation
										JOINT LeftHandMiddle2
										{
											OFFSET 6.17440 0.00000 0.00000
											CHANNELS 3 Zrotation Xrotation Yrotation
											JOINT LeftHandMiddle3
											{
												OFFSET 3.56744 0.00000 0.00000
												CHANNELS 3 Zrotation Xrotation Yrotation
												End site
												{
													OFFSET 0.00000 0.00000 0.00000
												}
											}
										}
									}
									JOINT LeftHandRing1
									{
										OFFSET 12.69180 0.00000 -3.06433
										CHANNELS 3 Zrotation Xrotation Yrotation
										JOINT LeftHandRing2
										{
											OFFSET 5.62556 0.00000 0.00000
											CHANNELS 3 Zrotation Xrotation Yrotation
											JOINT LeftHandRing3
											{
												OFFSET 3.56744 0.00000 0.00000
												CHANNELS 3 Zrotation Xrotation Yrotation
												End site
												{
													OFFSET 0.00000 0.00000 0.00000
												}
											}
										}
									}
									JOINT LeftHandPinky1
									{
										OFFSET 11.11390 0.00000 -6.03719
										CHANNELS 3 Zrotation Xrotation Yrotation
										JOINT LeftHandPinky2
										{
											OFFSET 4.52789 0.00000 0.00000
											CHANNELS 3 Zrotation Xrotation Yrotation
											JOINT LeftHandPinky3
											{
												OFFSET 2.46976 0.00000 0.00000
												CHANNELS 3 Zrotation Xrotation Yrotation
												End site
												{
													OFFSET 0.00000 0.00000 0.00000
												}
											}
										}
									}
								}
							}
						}
					}
					JOINT pCube4
					{
						OFFSET 0.00000 10.91090 1.10792
						CHANNELS 3 Zrotation Xrotation Yrotation
						End site
						{
							OFFSET 0.00000 0.00000 0.00000
						}
					}
				}
			}
		}
	}
	JOINT RightUpLeg
	{
		OFFSET -9.98441 0.00000 0.00000
		CHANNELS 3 Zrotation Xrotation Yrotation
		JOINT RightLeg
		{
			OFFSET 0.00000 -42.11790 0.00000
			CHANNELS 3 Zrotation Xrotation Yrotation
			JOINT RightFoot
			{
				OFFSET 0.00000 -45.00020 -0.00001
				CHANNELS 3 Zrotation Xrotation Yrotation
				JOINT RightForeFoot
				{
					OFFSET 0.00000 -3.74820 0.00000
					CHANNELS 3 Zrotation Xrotation Yrotation
					JOINT RightToeBase
					{
						OFFSET 0.00000 0.06325 14.43120
						CHANNELS 3 Zrotation Xrotation Yrotation
						End site
						{
							OFFSET 0.00000 0.00000 0.00000
						}
					}
				}
			}
		}
	}
	JOINT LeftUpLeg
	{
		OFFSET 9.98441 0.00000 0.00000
		CHANNELS 3 Zrotation Xrotation Yrotation
		JOINT LeftLeg
		{
			OFFSET 0.00000 -42.11800 0.00000
			CHANNELS 3 Zrotation Xrotation Yrotation
			JOINT LeftFoot
			{
				OFFSET 0.00000 -45.00070 0.00000
				CHANNELS 3 Zrotation Xrotation Yrotation
				JOINT LeftForeFoot
				{
					OFFSET 0.00000 -3.74824 0.00000
					CHANNELS 3 Zrotation Xrotation Yrotation
					JOINT LeftToeBase
					{
						OFFSET 0.00000 0.06325 14.43110
						CHANNELS 3 Zrotation Xrotation Yrotation
						End site
						{
							OFFSET 0.00000 0.00000 0.00000
						}
					}
				}
			}
		}
	}
}
MOTION
Frames: 4
Frame Time: 0.050000
0.02990487005819715 0.0017974266858852184 -0.030683026530917736 -0.030275167535794026 -0.04824787040561964 -0.025783565342660242 -3.6236831833764303 7.327829742360925 -0.7264108529148143 -0.6864472026523998 2.911746052068206 0.36008385130064896 -0.7932688195375178 0.28819294288386693 -1.842865736582419 -0.2767022286754614 0.37306170589482507 -1.028531327627092 -0.5054043249609117 8.682954603486344 0.3359469658209908 -0.1887832623938365 -0.62345913849267 -1.4884747659243502 -0.2923035055287796 -14.347547972548133 -0.025409677451852377 4.02128463391094 -0.16679210660931146 -10.444036902024646 70.70216444319232 -7.3096264267089595 30.930444732436552 39.378464567208916 15.322403465350067 103.91745652426631 20.978600003339242 -0.11197409875749835 -12.137675391038918 4.48566352277774 -0.13939806120046058 -1.5736456640885492 0.00512283833640515 0.015901603781725678 -56.27746590212196 -0.030638061911816707 0.043924715577544904 -56.26385386682104 -38.75257436746603 -0.007956765475853219 -0.006413795525311671 0.024603335838344186 0.02391699662437334 0.011175243088189103 -0.02213406603310579 -0.0004632955880532774 0.046262940288377824 -36.656419397280324 -0.019778711103792916 -0.03486186745604966 0.02821102052784768 -0.014314903377286005 0.0027468907591172154 -0.008503699383770448 0.0008485729112477054 -0.0009115286437455051 -19.76916279144095 0.0368549425778713 0.040849147414514834 0.03950243392869943 -0.04087567320269669 0.01137513512195872 -0.0338137796685687 0.017147826018446364 0.014384600845164075 24.022482631684557 0.039416957764186786 0.03724479587966735 28.88436254433435 -0.010251184853099697 0.019456500412792708 28.89934080733787 0.010791755169072291 0.04300807963213256 -0.8549323036264236 0.4450147643530305 8.885607381905514 -59.681163120660464 16.648840380446604 -37.21177607618818 -25.130870953255194 12.794200219342503 -101.88251754101069 -17.264703273783738 1.1560672827264455 -1.8472620893389098 -0.5044858998377113 0.08695992933965908 -8.139061272646487 -0.043585711084384145 -0.017843717556378497 44.537745082238345 -0.04927947770632857 -0.011877461855676633 44.54768347657855 12.503648538404594 0.010171811595871902 0.026072995688909008 0.015957622080359196 -0.03585565531465832 0.02880996216586563 -0.024949704197868103 0.00455365253847846 -0.0029564679119942765 11.137401836081144 0.004357477289337888 -0.014822473482737583 0.0020651978221252303 0.00854962670031477 0.02682319980783707 0.029161199403114593 0.0026758732219336807 0.010481065365594283 4.775330748528133 0.024268542346788304 0.030839804727450165 0.0247534883942704 0.0058258164067930005 -0.006242083169253138 -0.016796288286937876 0.04060874077411892 -0.041141113529040416 -5.601183457686791 -0.03284480181038723 0.030337985143347325 -6.707207924005791 0.004814488386894278 -0.014033266754988066 -6.715573435219893 -0.04547372393696477 0.009349159279985217 0.016738733265863354 -0.03150037248917317 -0.043114625799192605 8.067594178959743 3.53671580449776 -19.259926069016405 -0.0007798374612875155 10.437266003484538 0.009535872789545747 -5.6324961657201715 -15.629842500706722 3.162421061127327 0.019947216418572868 -0.03865955669553255 -0.04506647173397281 0.036550188447209205 4.690613330261094 0.008332138469051328 12.500314429245332 -8.287888945498798 6.899436724947922 0.017151715638363776 46.39347350210153 0.03943043461394073 -4.321244894420322 -14.775886491237623 -3.847433630479096 0.025223845628476727 0.0020486747777559294 0.01215319364123037 0.03020805904690466 -10.731623495142173 0.010434453037101969 
-0.00952917401713109 0.023288868654040302 -0.02339192847861611 -0.04709887725253077 -0.01825354567964103 0.019832934885387607 -3.495917164633835 7.365843988444532 -0.6737138791170117 -0.5951256192927701 3.00880286752307 0.31971572957289945 -0.8222866910542905 0.29829615540111226 -1.9672378154893755 -0.23413028599645236 0.4413212241700609 -1.1074007182991996 -0.5394626464017717 8.736944660153027 0.34886383501873847 -0.20736056072476 -0.7178071974042802 -1.4281910916103906 -0.34740976675201574 -14.382852743458418 -0.03530933323073407 4.090570411872756 -0.20624241159311574 -10.47746072459518 70.94194036870984 -6.915744602831004 31.63249022625787 43.04212488708459 16.268201423239592 102.96324225164787 21.225345588823675 -0.06377311722091952 -12.604024646156361 4.5159573051866815 -0.10500662544538228 -1.6008566196071417 0.006863936083658154 -0.009992136434193903 -56.19141250258775 -0.02971499909817868 -0.021274634737000427 -56.2100800995234 -38.765383892959136 0.04475008144853761 -0.040717344784061915 0.028417490037670905 -0.002869109446968273 0.0029622196591158885 0.016439774752420918 -0.03876041020718412 0.03505390388024476 -36.733458877574094 -0.039561383564504976 0.011283116047194657 -0.048062227598016594 0.010837651022475591 -0.019523804228795127 -0.04587571433383374 0.0042904436400360265 -0.0007087625250184091 -19.7276433606556 0.03231292060823326 -0.019887446485375517 0.04447933118272205 -0.04136724495088831 -0.025149079993636383 -0.04453163980001431 -0.0047355065897602515 0.01840606812525131 24.007174257008664 0.021731703186275774 -0.03431585544264095 28.86513042868435 -0.04482342121177436 0.04933767585108448 28.86385828814562 0.03754000286408144 0.030479989141592095 -0.7858317666854133 0.4155885590859661 8.735013414647879 -58.74400666056377 17.393120460652238 -38.661662487918676 -26.019856047103485 14.177339057427343 -100.55135276764263 -18.592074671378125 1.3936371807826964 -2.007842683314281 -0.454289853856199 0.10497557291769949 -8.143947043652732 -0.01297408592752857 -0.04021861537191715 44.60125332258157 -0.02527010576194882 0.0046428396265810025 44.60221146956688 12.462101792500382 -0.02203007307503779 -0.0159942226682636 -0.028766716423783437 -0.014960263198161811 0.045362808533483935 0.018972875051370096 -0.01167710092791043 0.03000177397185473 11.138399531071263 -0.04522647984065427 0.02998301896966834 -0.016706018293011365 -0.045350306712373896 -0.010552493545137051 -0.011043587508296251 -0.033793005929385736 -0.016488289217119926 4.729012444487952 0.0034096646861586227 -0.04844596606001111 -0.0020076390709388905 -0.020558561156929295 0.006999608758567276 0.047429823289855455 -0.042876138214949414 -0.01031072458411704 -5.5655099286871135 0.024648862025304523 -0.006883722493421598 -6.680129021736 0.014062265248479647 -0.04344075856171656 -6.693832462302767 -0.029047959342343506 -0.03214689883573197 0.03569377006248236 -0.025263660327925153 0.018363549140516876 8.050431687116657 3.511965674441628 -19.24104631885558 0.0024504403686012974 10.412043513550392 0.03746751793007296 -5.6005586035085555 -15.672286632043614 3.162912121048872 -0.003876690176808866 -0.027477946768313527 -0.04142446136879613 0.04017881981257846 4.6790054609759455 -0.007880371805033783 12.486680985974182 -8.247212691191029 6.834203641446057 0.03733843811384418 46.39527806389133 0.005960832141454367 -4.338663423471416 -14.713643002372255 -3.800664930588701 0.03388827216592329 -0.01438008617970893 -0.015864727108337827 0.04327872573368875 -10.76605259670548 0.02545574020323471 
0.04784237939818073 0.049694464395858624 -0.03410711219268189 -0.0077850126970455446 -0.022692748275345967 0.010916419617171092 -3.469365526937361 7.323753532262524 -0.7208064287568487 -0.6328209070854808 3.02311249499074 0.31558623984600914 -0.7397601879654445 0.36806538890308316 -2.0099319495248436 -0.1098053830313568 0.4415403642428284 -1.114009189555585 -0.5461234037855645 8.763987534194658 0.30571611037319957 -0.1854466235246883 -0.7319713704041629 -1.452218908776576 -0.28594148156733745 -14.53936889157412 -0.03022458880392608 4.1870999707566625 -0.2010099660723389 -10.519322998354056 70.63166813048485 -5.807659454770711 31.407847683757694 45.05611761655561 16.3901340038937 102.25108663680344 21.26053115155395 -0.01744463139680361 -12.807163386884435 4.5122245885487136 -0.17295182408662244 -1.5897312293216388 -0.007169765112983672 0.021362346087438117 -56.21764899199164 0.004175942440138649 0.014707545782988397 -56.24264292622186 -38.788875077812044 -0.0069962608326588 -0.006683731691684511 0.015392950868369776 -0.0457793055575068 0.014438750390358128 -0.003824816384343525 0.040820669648136534 -0.010453010597472697 -36.73494371161981 -0.006789748421850282 0.00929963238057758 0.04140459094665941 0.04084549440684033 0.042101269513744724 -0.024542427745526448 -0.03945238327287971 -0.02187393491470195 -19.763535938475012 0.011856759469361197 -0.03658562351931219 0.015158986047815558 0.01875895922425554 -0.02250305538763978 -0.0412095685811154 -0.003924271191983343 0.04813750421989859 24.008459863441317 0.02070797500293858 0.013268288700228639 28.86697555654398 0.014897406348847987 -0.008086587850906353 28.87419037356004 -0.03133550575025002 -0.04772400615695441 -0.8736886304742608 0.3546807486686263 8.810870110545178 -57.5826037114411 18.738413262612074 -39.0199333162608 -25.299297967293676 14.510979326808618 -98.94814543359199 -19.572556593582775 1.6478836734576465 -2.0718856560153185 -0.5187955594528981 0.04987708378983023 -8.078059379695057 0.0076716514374438344 0.02643355556726604 44.55174950890597 -0.045953506246563636 0.018136312388608154 44.54976966659336 12.481901638774918 0.046157443701639135 0.009789565964044407 0.0014426604587451008 0.025707752468872518 0.04192207833589227 -0.01032130147439755 -0.038182501915530125 0.041475392487457415 11.147155605537552 -0.020758728670453516 -0.039980582256187926 0.03608319597834371 -0.01065840782286443 0.03336097436986019 0.04400100583451618 0.03997674731532367 0.016935663573892087 4.759639295787449 -0.01134891195060723 -0.022729987532030906 0.039176997222294764 0.015339267570984166 0.029208813948049944 0.00455351570823382 -0.04058817446960836 0.03384643211147645 -5.5578201484251135 -0.03033695290914255 0.012826948183062474 -6.749426370195676 0.03991319584402073 0.010943530902739008 -6.738759164270981 -0.04958193618022794 0.00800613283059631 -0.028280716355193677 -0.046582741383616885 -0.007667669056331175 8.030387087253242 3.5304443700099735 -19.26487488512448 -0.022854164405278467 10.407421402867435 0.008810912858643483 -5.665384767068014 -15.65409611359294 3.210213933224959 -0.007578774041397227 0.010283774794994949 0.023566440672981092 -0.04614237089982134 4.736870825902429 -0.04773824575509258 12.456654294892394 -8.234149638827843 6.861308502507894 0.013922776510305185 46.37573417717995 -0.032224297401746024 -4.307843317816745 -14.721928429249498 -3.858730632594268 -0.036367771829128794 0.014751977218015232 0.007276717802541639 -0.010632556758850243 -10.737375699228913 -0.024792424912213725 
0.021414812598560578 0.009017076147064255 0.024223584960097848 -0.0019395244884211867 0.04099174675410709 0.033709878542185205 -3.369340059648854 7.308507562622952 -0.7606862815586266 -0.6420054517326779 3.0951073440950108 0.32819502500240383 -0.7112723836581573 0.40182395758468964 -2.0885025071797387 0.0598326094395152 0.43222352486273286 -1.1182091264109921 -0.5479807295302456 8.799194729896149 0.22399451074992244 -0.22401574926519593 -0.7861769622317482 -1.4626642073137042 -0.3423106258681087 -14.563336949262363 -0.049747770696269816 4.5310638975076944 -0.33615018889141884 -10.649749418074023 69.96399910594772 -4.071623482036084 30.086912980021413 47.19737712716271 16.397895412218478 101.82910055016475 21.47573586139461 -0.012997448288593588 -13.21966395459489 4.505282671036406 -0.0941994777201692 -1.632175234569041 0.025165668387680813 0.016038189865152506 -56.2054869019419 0.028233439419495084 0.02685026713742448 -56.199279453316365 -38.74806381938796 0.04595889411494096 0.02930167992312433 -0.017249982865712533 0.02559316459256255 0.019234921077762347 -0.007579303145492794 -0.02061628141633461 0.021290324604891112 -36.67318594572229 -0.046885071299130776 0.0231732476861667 0.003628371228756528 -0.02909969698873903 -0.012996110525383872 -0.0019654601488837886 -0.01664498969396708 -0.03169231920689442 -19.728152824140317 -0.0405949396157791 0.037244609588180266 -0.030557838331342128 0.01900891401095632 -0.024557427944255483 -0.034753709952724 -0.045490502349191816 -0.008058257448526075 24.011261018539333 0.009871056689288624 -0.036850076052501665 28.840343943263157 -0.03312618806016078 -0.015626947578209562 28.867479039186122 0.03739444583076044 0.013766150369794759 -1.1133131466764996 0.374287127476255 8.856455705359819 -56.28769971889423 20.719635282133712 -38.88331744213454 -24.18699475455633 14.412400337592533 -98.1534050342136 -20.398714559852582 1.856651427316205 -2.2141540261908066 -0.43063793684324847 0.06419657294437053 -8.126012583151416 -0.02018515645554898 -0.020536658297735478 44.570780402178706 0.006108916710484842 -0.024223000625380343 44.61185054220518 12.414835964852525 0.04092899181483296 -0.007039844503146717 -0.025809690615142995 0.008770902888764108 0.029131689493960628 -0.0022017259155324384 -0.022085333660382536 -0.03991406805072808 11.080571248953287 -0.014522756872718688 0.04158061292366876 0.00542047354588495 0.0015196158728908416 0.0018092331024894728 -0.032031554931060545 -0.04915177611890952 -0.015614155230450984 4.777460561060162 -0.01936842327403025 -0.012356731093526339 0.029744440309317076 -0.0395831520279846 -0.005974491805144216 0.00520832321413884 0.019271282989362287 -0.006894660919328332 -5.567048723731429 0.033780736309754714 -0.015395753134075858 -6.679694847054736 0.0006630424055216203 0.023586645698879135 -6.6976110482468565 0.017273162145697556 -0.027801314183186814 -0.04079714272969053 -0.04936914444752144 -0.03525989302451328 8.039253984732321 3.503280217680063 -19.19208346265398 0.008902524995711446 10.387084010464566 0.004450684516660268 -5.62467583308986 -15.634993439520269 3.2418921384268504 0.012661555363544606 0.03488386668291984 0.019120343733394066 0.03718051972877085 4.73500950388176 -0.0034798188360841914 12.479179209026105 -8.210657629159945 6.8482796084249244 -0.034400983069246806 46.38880406174635 -0.02711908907154978 -4.305453725756209 -14.782663020767968 -3.8248983239393555 0.014273867890841604 0.025774671619684365 -0.015822317128927166 0.007801375108656559 -10.697439606611786 -0.03648021014739095 
